<svg xmlns="http://www.w3.org/2000/svg" viewBox="0 0 62 62"><defs><style>.cls-1{fill:#1c71f4;}</style></defs><g id="Layer_2" data-name="Layer 2"><g id="Layer_1-2" data-name="Layer 1"><path d="M47.25,46A3.26,3.26,0,0,1,44,42.75V30a2,2,0,0,0-4,0V42.75a3.25,3.25,0,0,1-6.4.79l-1.06-4.28a33.35,33.35,0,0,0-3-7.78,1,1,0,0,1,1.76-1,34.86,34.86,0,0,1,3.21,8.26l1.07,4.28A1.25,1.25,0,0,0,38,42.75V30a4,4,0,0,1,8,0V42.75a1.25,1.25,0,0,0,2.46.31l1.07-4.28a34.78,34.78,0,0,1,5.18-11.45A29.64,29.64,0,0,0,60,10.39,8.39,8.39,0,0,0,51.61,2a8.77,8.77,0,0,0-4.87,1.55A8.31,8.31,0,0,1,42,5a8.31,8.31,0,0,1-4.74-1.45A8.77,8.77,0,0,0,32.39,2a8.4,8.4,0,0,0-8.12,6.25,1,1,0,1,1-1.93-.5A10.4,10.4,0,0,1,32.39,0a10.72,10.72,0,0,1,6,1.9A6.35,6.35,0,0,0,42,3a6.35,6.35,0,0,0,3.62-1.1,10.72,10.72,0,0,1,6-1.9A10.4,10.4,0,0,1,62,10.39a31.6,31.6,0,0,1-5.65,18.08,32.94,32.94,0,0,0-4.89,10.79L50.4,43.54A3.25,3.25,0,0,1,47.25,46Z"/><path d="M42,9a12.45,12.45,0,0,1-7-2.13,1,1,0,0,1-.27-1.39,1,1,0,0,1,1.39-.27A10.43,10.43,0,0,0,42,7a10.43,10.43,0,0,0,5.86-1.79A1,1,0,0,1,49,6.87,12.45,12.45,0,0,1,42,9Z"/><path d="M15,62a1,1,0,0,1-1-1V55a1,1,0,0,1,2,0v6A1,1,0,0,1,15,62Z"/><path d="M11,62a1,1,0,0,1-1-1V55a1,1,0,0,1,2,0v6A1,1,0,0,1,11,62Z"/><path class="cls-1" d="M39.55,19.17,34.75,16l1.13-5.66a1,1,0,0,0-.27-.91,1,1,0,0,0-.91-.27L29,10.25l-3.21-4.8a1,1,0,0,0-1.66,0L21,10.25,15.3,9.12a1,1,0,0,0-.91.27,1,1,0,0,0-.27.91l.54,2.7H17v2h4v2l9,1.8a1.22,1.22,0,0,1,0,2.4L21,23v2H17v2H14.66l-.54,2.7a1,1,0,0,0,.27.91,1,1,0,0,0,.91.27L21,29.75l3.21,4.8a1,1,0,0,0,1.66,0L29,29.75l5.66,1.13a1,1,0,0,0,.91-.27,1,1,0,0,0,.27-.91L34.75,24l4.8-3.21a1,1,0,0,0,0-1.66Z"/><path d="M17,28H8A8,8,0,0,1,8,12h9a1,1,0,0,1,1,1V27A1,1,0,0,1,17,28ZM8,14A6,6,0,0,0,8,26h8V14Z"/><path d="M16.15,56H9.85A2.86,2.86,0,0,1,7,53.15V27a1,1,0,0,1,2,0V53.15a.85.85,0,0,0,.85.85h6.3a.85.85,0,0,0,.85-.85.86.86,0,0,0-.47-.77l-3-1.49A1,1,0,0,1,13,50V27a1,1,0,0,1,2,0V49.38l2.42,1.21A2.86,2.86,0,0,1,16.15,56Z"/><path d="M21,26H17a1,1,0,0,1,0-2h3V16H17a1,1,0,0,1,0-2h4a1,1,0,0,1,1,1V25A1,1,0,0,1,21,26Z"/><path d="M21,24a1,1,0,0,1-.2-2l9-1.8a.22.22,0,0,0,0-.44l-9-1.8a1,1,0,1,1,.4-2l9,1.8a2.22,2.22,0,0,1,0,4.36l-9,1.8Z"/><path d="M14,49a1,1,0,0,1-.71-.29,1,1,0,0,1,0-1.42L16,44.59V35.41l-2.71-2.7a1,1,0,0,1,1.42-1.42l3,3A1,1,0,0,1,18,35V45a1,1,0,0,1-.29.71l-3,3A1,1,0,0,1,14,49Z"/><path d="M14,35H12a1,1,0,0,1,0-2h2a1,1,0,0,1,0,2Z"/><path d="M14,39H12a1,1,0,0,1,0-2h2a1,1,0,0,1,0,2Z"/><path d="M14,43H12a1,1,0,0,1,0-2h2a1,1,0,0,1,0,2Z"/><path d="M14,47H12a1,1,0,0,1,0-2h2a1,1,0,0,1,0,2Z"/><path d="M45,37H39a1,1,0,0,1,0-2h6a1,1,0,0,1,0,2Z"/><path d="M61,52H23a1,1,0,0,1-.79-.39,1,1,0,0,1-.18-.87L25.44,38a4,4,0,0,1,3.86-3H32a1,1,0,0,1,0,2H29.3a2,2,0,0,0-1.93,1.48L24.3,50H59.7L56.63,38.48A2,2,0,0,0,54.7,37H52a1,1,0,0,1,0-2h2.7a4,4,0,0,1,3.86,3L62,50.74a1,1,0,0,1-.18.87A1,1,0,0,1,61,52Z"/><path d="M18,62H8a1,1,0,0,1,0-2H18a1,1,0,0,1,0,2Z"/></g></g></svg>