<svg xmlns="http://www.w3.org/2000/svg" viewBox="0 0 62 62"><defs><style>.cls-1{fill:#1c71f4;}</style></defs><g id="Layer_2" data-name="Layer 2"><g id="Layer_1-2" data-name="Layer 1"><path class="cls-1" d="M58,21a4,4,0,0,0-8,0,3,3,0,0,0,0,6h.14a4,4,0,0,0,7.72,0H58a3,3,0,0,0,0-6Z"/><path class="cls-1" d="M27,29a4,4,0,0,0-3-3.86c0-.05,0-.09,0-.14a4,4,0,0,0-8,0c0,.05,0,.09,0,.14a4,4,0,0,0,0,7.72S16,33,16,33a4,4,0,0,0,8,0s0-.09,0-.14A4,4,0,0,0,27,29Z"/><path d="M41.25,54A3.26,3.26,0,0,1,38,50.75V38a2,2,0,0,0-4,0V50.75a3.25,3.25,0,0,1-6.4.79l-1.06-4.28a33.08,33.08,0,0,0-4.38-10,1,1,0,1,1,1.68-1.1,34.8,34.8,0,0,1,4.63,10.64l1.07,4.28A1.25,1.25,0,0,0,32,50.75V38a4,4,0,0,1,8,0V50.75a1.25,1.25,0,0,0,2.46.31l1.07-4.28a34.78,34.78,0,0,1,5.18-11.45,30,30,0,0,0,3.09-5.71,1,1,0,0,1,1.3-.55,1,1,0,0,1,.55,1.31,31.45,31.45,0,0,1-3.3,6.09,32.94,32.94,0,0,0-4.89,10.79L44.4,51.54A3.25,3.25,0,0,1,41.25,54Z"/><path d="M17.21,23a1,1,0,0,1-1-.88A31,31,0,0,1,16,18.39,10.4,10.4,0,0,1,26.39,8a10.72,10.72,0,0,1,6,1.9,6.51,6.51,0,0,0,7.24,0,10.72,10.72,0,0,1,6-1.9,10.45,10.45,0,0,1,10.28,8.85,1,1,0,0,1-2,.3A8.44,8.44,0,0,0,45.61,10a8.77,8.77,0,0,0-4.87,1.55,8.47,8.47,0,0,1-9.48,0A8.77,8.77,0,0,0,26.39,10,8.39,8.39,0,0,0,18,18.39a29.06,29.06,0,0,0,.21,3.49A1,1,0,0,1,17.33,23Z"/><path d="M36,17a12.45,12.45,0,0,1-7-2.13,1,1,0,1,1,1.12-1.66,10.49,10.49,0,0,0,11.72,0A1,1,0,1,1,43,14.87,12.45,12.45,0,0,1,36,17Z"/><path d="M7,62a3,3,0,0,1-3-3V28.21L.09,19.41A1,1,0,0,1,0,19V1A1,1,0,0,1,1,0H5A1,1,0,0,1,6,1V18.79l3.91,8.8A1,1,0,0,1,10,28V59A3,3,0,0,1,7,62ZM2,18.79l3.91,8.8A1,1,0,0,1,6,28V59a1,1,0,0,0,2,0V28.21l-3.91-8.8A1,1,0,0,1,4,19V2H2Z"/><path d="M11,19H5a1,1,0,0,1,0-2h5V3H5A1,1,0,0,1,5,1h6a1,1,0,0,1,1,1V18A1,1,0,0,1,11,19Z"/><path d="M11,7H5A1,1,0,0,1,5,5h6a1,1,0,0,1,0,2Z"/><path d="M11,11H5A1,1,0,0,1,5,9h6a1,1,0,0,1,0,2Z"/><path d="M11,15H5a1,1,0,0,1,0-2h6a1,1,0,0,1,0,2Z"/><path d="M50,28a4,4,0,1,1,3-6.67,1,1,0,1,1-1.49,1.34A2,2,0,0,0,50,22a2,2,0,0,0,0,4,1,1,0,0,1,0,2Z"/><path d="M58,28a1,1,0,0,1,0-2,2,2,0,0,0,0-4,2,2,0,0,0-1.33.51A1,1,0,1,1,55.33,21,4,4,0,1,1,58,28Z"/><path d="M54,31a5,5,0,0,1-5-5,1,1,0,0,1,2,0,3,3,0,0,0,6,0,1,1,0,0,1,2,0A5,5,0,0,1,54,31Z"/><path d="M58,22a1,1,0,0,1-1-1,3,3,0,0,0-6,0,1,1,0,0,1-2,0,5,5,0,0,1,10,0A1,1,0,0,1,58,22Z"/><circle cx="54" cy="26" r="1"/><path d="M17,34a5,5,0,0,1,0-10,1,1,0,0,1,0,2,3,3,0,0,0,0,6,1,1,0,0,1,0,2Z"/><circle cx="17" cy="29" r="1"/><circle cx="23" cy="29" r="1"/><circle cx="16" cy="42" r="1"/><circle cx="38" cy="1" r="1"/><circle cx="19" cy="5" r="1"/><circle cx="61" cy="36" r="1"/><path d="M23,34a1,1,0,0,1,0-2,3,3,0,0,0,0-6,1,1,0,0,1,0-2,5,5,0,0,1,0,10Z"/><path d="M24,26a1,1,0,0,1-1-1,3,3,0,0,0-6,0,1,1,0,0,1-2,0,5,5,0,0,1,10,0A1,1,0,0,1,24,26Z"/><path d="M20,38a5,5,0,0,1-5-5,1,1,0,0,1,2,0,3,3,0,0,0,6,0,1,1,0,0,1,2,0A5,5,0,0,1,20,38Z"/><path class="cls-1" d="M53,47a3,3,0,1,1,3-3A3,3,0,0,1,53,47Z"/><path class="cls-1" d="M20,55a3,3,0,1,1,3-3A3,3,0,0,1,20,55Z"/><path class="cls-1" d="M59,6a3,3,0,1,1,3-3A3,3,0,0,1,59,6Z"/></g></g></svg>