<svg xmlns="http://www.w3.org/2000/svg" viewBox="0 0 62 40"><defs><style>.cls-1{fill:#1c71f4;}</style></defs><g id="Layer_2" data-name="Layer 2"><g id="Layer_1-2" data-name="Layer 1"><rect class="cls-1" x="15" y="6" width="8" height="6"/><rect class="cls-1" x="39" y="6" width="8" height="6"/><path d="M22.77,28A2.77,2.77,0,0,1,20,25.23V17a1,1,0,0,0-2,0v8.23a2.77,2.77,0,0,1-5.37,1l-2.51-6.7A19.31,19.31,0,0,1,6,7.6v-1A6.62,6.62,0,0,1,12.61,0h.44A6.69,6.69,0,0,1,16.8,1.17,4.26,4.26,0,0,0,19,2a4.26,4.26,0,0,0,2.2-.83A6.69,6.69,0,0,1,25,0h.44A6.62,6.62,0,0,1,32,6.61v1a19.31,19.31,0,0,1-4.12,11.9l-2.51,6.7A2.79,2.79,0,0,1,22.77,28ZM19,14a3,3,0,0,1,3,3v8.23a.78.78,0,0,0,.77.77.77.77,0,0,0,.72-.5l2.57-6.85a.92.92,0,0,1,.16-.27A17.32,17.32,0,0,0,30,7.6v-1A4.62,4.62,0,0,0,25.39,2H25a4.84,4.84,0,0,0-2.65.83,5.27,5.27,0,0,1-6.6,0A4.84,4.84,0,0,0,13.05,2h-.44A4.62,4.62,0,0,0,8,6.61v1a17.32,17.32,0,0,0,3.78,10.78.92.92,0,0,1,.16.27L14.5,25.5a.79.79,0,0,0,.73.5.78.78,0,0,0,.77-.77V17A3,3,0,0,1,19,14Z"/><path d="M46.77,28A2.77,2.77,0,0,1,44,25.23V17a1,1,0,0,0-2,0v8.23a2.77,2.77,0,0,1-5.37,1l-2.51-6.7A19.31,19.31,0,0,1,30,7.6v-1A6.62,6.62,0,0,1,36.61,0h.44A6.69,6.69,0,0,1,40.8,1.17,4.26,4.26,0,0,0,43,2a4.26,4.26,0,0,0,2.2-.83A6.69,6.69,0,0,1,49,0h.44A6.62,6.62,0,0,1,56,6.61v1a19.31,19.31,0,0,1-4.12,11.9l-2.51,6.7A2.79,2.79,0,0,1,46.77,28ZM43,14a3,3,0,0,1,3,3v8.23a.78.78,0,0,0,.77.77.77.77,0,0,0,.72-.5l2.57-6.85a.92.92,0,0,1,.16-.27A17.32,17.32,0,0,0,54,7.6v-1A4.62,4.62,0,0,0,49.39,2H49a4.84,4.84,0,0,0-2.65.83,5.27,5.27,0,0,1-6.6,0A4.84,4.84,0,0,0,37.05,2h-.44A4.62,4.62,0,0,0,32,6.61v1a17.32,17.32,0,0,0,3.78,10.78.92.92,0,0,1,.16.27L38.5,25.5a.79.79,0,0,0,.73.5.78.78,0,0,0,.77-.77V17A3,3,0,0,1,43,14Z"/><path d="M35,20H28a1,1,0,0,1,0-2h7a1,1,0,0,1,0,2Z"/><path d="M61,40H1a1,1,0,0,1-.77-.37A1,1,0,0,1,0,38.8L3.54,21.22A4,4,0,0,1,7.46,18H11a1,1,0,0,1,0,2H7.46a2,2,0,0,0-2,1.61L2.22,38H59.78L56.5,21.61a2,2,0,0,0-2-1.61H51a1,1,0,0,1,0-2h3.54a4,4,0,0,1,3.92,3.22L62,38.8a1,1,0,0,1-.21.83A1,1,0,0,1,61,40Z"/><path d="M15,13a1,1,0,0,1-1-1V6a1,1,0,0,1,2,0v6A1,1,0,0,1,15,13Z"/><path d="M23,13a1,1,0,0,1-1-1V6a1,1,0,0,1,2,0v6A1,1,0,0,1,23,13Z"/><path d="M15,10H7A1,1,0,0,1,7,8h8a1,1,0,0,1,0,2Z"/><path d="M31,10H23a1,1,0,0,1,0-2h8a1,1,0,0,1,0,2Z"/><path d="M39,13a1,1,0,0,1-1-1V6a1,1,0,0,1,2,0v6A1,1,0,0,1,39,13Z"/><path d="M47,13a1,1,0,0,1-1-1V6a1,1,0,0,1,2,0v6A1,1,0,0,1,47,13Z"/><path d="M39,10H31a1,1,0,0,1,0-2h8a1,1,0,0,1,0,2Z"/><path d="M55,10H47a1,1,0,0,1,0-2h8a1,1,0,0,1,0,2Z"/></g></g></svg>