<svg xmlns="http://www.w3.org/2000/svg" viewBox="0 0 62 62"><defs><style>.cls-1{fill:#1c71f4;}</style></defs><g id="Layer_2" data-name="Layer 2"><g id="Layer_1-2" data-name="Layer 1"><path d="M36.25,62A3.26,3.26,0,0,1,33,58.75V46a2,2,0,0,0-4,0V58.75a3.25,3.25,0,0,1-6.4.79l-1.06-4.28a32.94,32.94,0,0,0-4.89-10.79A31.6,31.6,0,0,1,11,26.39,10.4,10.4,0,0,1,21.39,16a10.72,10.72,0,0,1,6,1.9,1,1,0,1,1-1.12,1.65A8.77,8.77,0,0,0,21.39,18,8.39,8.39,0,0,0,13,26.39a29.64,29.64,0,0,0,5.29,16.94,34.78,34.78,0,0,1,5.18,11.45l1.07,4.28A1.25,1.25,0,0,0,27,58.75V46a4,4,0,0,1,8,0V58.75a1.25,1.25,0,0,0,2.46.31l1.07-4.28a34.78,34.78,0,0,1,5.18-11.45A29.64,29.64,0,0,0,49,26.39,8.39,8.39,0,0,0,40.61,18a8.77,8.77,0,0,0-4.87,1.55,1,1,0,1,1-1.12-1.65,10.72,10.72,0,0,1,6-1.9A10.4,10.4,0,0,1,51,26.39a31.6,31.6,0,0,1-5.65,18.08,32.94,32.94,0,0,0-4.89,10.79L39.4,59.54A3.25,3.25,0,0,1,36.25,62Z"/><path d="M31,25a12.47,12.47,0,0,1-7-2.13,1,1,0,0,1-.27-1.39,1,1,0,0,1,1.39-.27,10.49,10.49,0,0,0,11.72,0A1,1,0,1,1,38,22.87,12.47,12.47,0,0,1,31,25Z"/><path d="M31,25a1,1,0,0,1-.82-.42l-12-17a1,1,0,0,1-.07-1l3-6A1,1,0,0,1,22,0H40a1,1,0,0,1,.89.55l3,6a1,1,0,0,1-.07,1l-12,17A1,1,0,0,1,31,25ZM20.16,6.91,31,22.27,41.84,6.91,39.38,2H22.62Z"/><path d="M35,8h0a1,1,0,0,1-.78-.45L31,2.8,27.83,7.55a1,1,0,0,1-.78.45,1,1,0,0,1-.82-.36l-5-6A1,1,0,0,1,21.36.23a1,1,0,0,1,1.41.13l4.14,5L30.17.45a1,1,0,0,1,1.66,0l3.26,4.88,4.14-5A1,1,0,0,1,40.64.23a1,1,0,0,1,.13,1.41l-5,6A1,1,0,0,1,35,8Z"/><path d="M43,8H19a1,1,0,0,1,0-2H43a1,1,0,0,1,0,2Z"/><path d="M31,25a.91.91,0,0,1-.23,0,1,1,0,0,1-.74-1.2l4-17A1,1,0,1,1,36,7.23l-4,17A1,1,0,0,1,31,25Z"/><path d="M31,25a1,1,0,0,1-1-.77l-4-17A1,1,0,0,1,28,6.77l4,17a1,1,0,0,1-.74,1.2A.91.91,0,0,1,31,25Z"/><path class="cls-1" d="M54,20a1,1,0,0,1-1-.88l-.25-2A7.19,7.19,0,0,0,46.84,11a1,1,0,0,1,0-2,7.19,7.19,0,0,0,5.92-6.17l.25-2a1,1,0,0,1,2,0l.25,2A7.19,7.19,0,0,0,61.16,9a1,1,0,0,1,0,2,7.19,7.19,0,0,0-5.92,6.17l-.25,2A1,1,0,0,1,54,20Z"/><path class="cls-1" d="M8,62a1,1,0,0,1-1-.88l-.25-2A7.19,7.19,0,0,0,.84,53a1,1,0,0,1,0-2,7.19,7.19,0,0,0,5.92-6.17l.25-2a1,1,0,0,1,2,0l.25,2A7.19,7.19,0,0,0,15.16,51a1,1,0,0,1,0,2,7.19,7.19,0,0,0-5.92,6.17l-.25,2A1,1,0,0,1,8,62Z"/><path d="M10,12a1,1,0,0,1-1-1V9a1,1,0,0,1,2,0v2A1,1,0,0,1,10,12Z"/><path d="M8,14H6a1,1,0,0,1,0-2H8a1,1,0,0,1,0,2Z"/><path d="M10,18a1,1,0,0,1-1-1V15a1,1,0,0,1,2,0v2A1,1,0,0,1,10,18Z"/><path d="M14,14H12a1,1,0,0,1,0-2h2a1,1,0,0,1,0,2Z"/><path d="M51,49a1,1,0,0,1-1-1V46a1,1,0,0,1,2,0v2A1,1,0,0,1,51,49Z"/><path d="M49,51H47a1,1,0,0,1,0-2h2a1,1,0,0,1,0,2Z"/><path d="M51,55a1,1,0,0,1-1-1V52a1,1,0,0,1,2,0v2A1,1,0,0,1,51,55Z"/><path d="M55,51H53a1,1,0,0,1,0-2h2a1,1,0,0,1,0,2Z"/></g></g></svg>