<svg xmlns="http://www.w3.org/2000/svg" viewBox="0 0 62 62.13"><defs><style>.cls-1{fill:#1c71f4;}</style></defs><g id="Layer_2" data-name="Layer 2"><g id="Layer_1-2" data-name="Layer 1"><rect class="cls-1" x="39" y="56.13" width="8" height="5"/><path class="cls-1" d="M24,28.13v1a13,13,0,0,0,26,0v-1Z"/><path d="M61,62.13H13a1,1,0,1,1,0-2H59.64l-2.48-8a10.4,10.4,0,0,0-8.3-7.13l-6-.93a1,1,0,1,1,.3-2l6,.92a12.4,12.4,0,0,1,9.9,8.52L62,60.84a1,1,0,0,1-1,1.29Z"/><path d="M27,44.75a1,1,0,0,1-.15-2l4-.61a1,1,0,1,1,.3,2l-4,.62Z"/><path d="M51,62.13a1,1,0,0,1-1-.87l-1-8A1,1,0,1,1,51,53l1,8a1,1,0,0,1-.87,1.12Z"/><path d="M37,50.13a1,1,0,0,1-.71-.29l-6-6a1,1,0,0,1-.29-.71v-2a1,1,0,1,1,2,0v1.59l5,5,5-5V41.13a1,1,0,1,1,2,0v2a1,1,0,0,1-.29.71l-6,6A1,1,0,0,1,37,50.13Z"/><path d="M50,32.13a1,1,0,1,1,0-2,3,3,0,0,0,0-6,1,1,0,0,1,0-2,5,5,0,0,1,0,10Z"/><path d="M24,32.13a5,5,0,1,1,0-10,1,1,0,0,1,0,2,3,3,0,0,0,0,6,1,1,0,0,1,0,2Z"/><circle cx="31" cy="23.13" r="1"/><circle cx="43" cy="23.13" r="1"/><path d="M37,43.13a14,14,0,0,1-14-14v-4a14,14,0,0,1,28,0v4A14,14,0,0,1,37,43.13Zm0-30a12,12,0,0,0-12,12v4a12,12,0,1,0,24,0v-4A12,12,0,0,0,37,13.13Z"/><path d="M54,28.13a1,1,0,0,1-1-1v-2a16,16,0,0,0-32,0v2a1,1,0,0,1-2,0v-2a18,18,0,0,1,36,0v2A1,1,0,0,1,54,28.13Z"/><path d="M47,57.13H39a1,1,0,0,1,0-2h8a1,1,0,0,1,0,2Z"/><path d="M37,39.13a1,1,0,0,1-1-1v-6a1,1,0,1,1,2,0v6A1,1,0,0,1,37,39.13Z"/><path d="M40,36.13H34a1,1,0,0,1,0-2h6a1,1,0,0,1,0,2Z"/><path d="M44,42.48a1,1,0,0,1-.34-1.94,7.81,7.81,0,0,1,1.87-.36,4.19,4.19,0,0,0,1.64-.36,4.39,4.39,0,0,0,1.14-1.25,7.23,7.23,0,0,1,1.24-1.43,6.82,6.82,0,0,1,1.63-1,4.46,4.46,0,0,0,1.42-.91,4.34,4.34,0,0,0,.65-1.56A7.65,7.65,0,0,1,54,31.93a7.48,7.48,0,0,1,1.2-1.46,4.45,4.45,0,0,0,1-1.35,4.28,4.28,0,0,0,.07-1.67,7.65,7.65,0,0,1,0-1.91,7.87,7.87,0,0,1,.61-1.77,4.31,4.31,0,0,0,.52-1.64,4.32,4.32,0,0,0-.52-1.63,7.87,7.87,0,0,1-.61-1.77,7.65,7.65,0,0,1,0-1.91,4.28,4.28,0,0,0-.07-1.67,4.3,4.3,0,0,0-1-1.35A7.48,7.48,0,0,1,54,12.34a7.65,7.65,0,0,1-.67-1.77A4.34,4.34,0,0,0,52.64,9a4.46,4.46,0,0,0-1.42-.91,6.82,6.82,0,0,1-1.63-1A7.23,7.23,0,0,1,48.35,5.7a4.39,4.39,0,0,0-1.14-1.25,4.15,4.15,0,0,0-1.64-.36,7.81,7.81,0,0,1-1.87-.36,7.39,7.39,0,0,1-1.63-.92A4.63,4.63,0,0,0,40.55,2a4.5,4.5,0,0,0-1.65.22,7.33,7.33,0,0,1-1.9.31,7.33,7.33,0,0,1-1.9-.31A4.47,4.47,0,0,0,33.45,2a4.5,4.5,0,0,0-1.51.79,7.7,7.7,0,0,1-1.64.92,7.33,7.33,0,0,1-1.87.35,4.36,4.36,0,0,0-1.64.37A4.39,4.39,0,0,0,25.65,5.7a7.23,7.23,0,0,1-1.24,1.43,7.16,7.16,0,0,1-1.63,1A4.46,4.46,0,0,0,21.36,9a4.36,4.36,0,0,0-.65,1.55A7.55,7.55,0,0,1,20,12.34a7.48,7.48,0,0,1-1.2,1.46,4.45,4.45,0,0,0-1,1.35,4.27,4.27,0,0,0-.07,1.67,7.66,7.66,0,0,1,0,1.91,7.87,7.87,0,0,1-.61,1.77,4.32,4.32,0,0,0-.52,1.63,4.31,4.31,0,0,0,.52,1.64,7.87,7.87,0,0,1,.61,1.77,7.65,7.65,0,0,1,0,1.91,4.29,4.29,0,0,0,.07,1.67,4.3,4.3,0,0,0,1,1.35A7.72,7.72,0,0,1,20,31.92a7.89,7.89,0,0,1,.67,1.78,4.34,4.34,0,0,0,.65,1.56,4.29,4.29,0,0,0,1.42.9,7.54,7.54,0,0,1,1.63,1,7.58,7.58,0,0,1,1.24,1.44,4.39,4.39,0,0,0,1.14,1.25,4.15,4.15,0,0,0,1.64.36,7.81,7.81,0,0,1,1.87.36,1,1,0,0,1-.68,1.88,6.63,6.63,0,0,0-1.4-.25,5.91,5.91,0,0,1-2.43-.62A5.86,5.86,0,0,1,24,39.74a5.87,5.87,0,0,0-.89-1.07,5.59,5.59,0,0,0-1.22-.7,6.13,6.13,0,0,1-2.08-1.42,5.93,5.93,0,0,1-1-2.3,6.1,6.1,0,0,0-.48-1.32,5.94,5.94,0,0,0-.9-1.07,5.86,5.86,0,0,1-1.48-2.06,6,6,0,0,1-.19-2.5,5.6,5.6,0,0,0,0-1.42,5.53,5.53,0,0,0-.47-1.29,6,6,0,0,1-.69-2.46,6,6,0,0,1,.69-2.45,5.53,5.53,0,0,0,.47-1.29,5.69,5.69,0,0,0,0-1.43,6,6,0,0,1,.19-2.5,5.91,5.91,0,0,1,1.48-2.05,5.94,5.94,0,0,0,.9-1.07A6.1,6.1,0,0,0,18.79,10a5.87,5.87,0,0,1,1-2.3A6,6,0,0,1,21.91,6.3a5.37,5.37,0,0,0,1.22-.7A6.32,6.32,0,0,0,24,4.53a5.71,5.71,0,0,1,1.76-1.81,5.91,5.91,0,0,1,2.43-.62,6.63,6.63,0,0,0,1.4-.25,6.56,6.56,0,0,0,1.19-.69A5.94,5.94,0,0,1,33.11.05,6.16,6.16,0,0,1,35.59.3,6.09,6.09,0,0,0,37,.55,6.09,6.09,0,0,0,38.41.3,6.16,6.16,0,0,1,40.89.05a5.87,5.87,0,0,1,2.3,1.11,6.56,6.56,0,0,0,1.19.69,6.63,6.63,0,0,0,1.4.25,5.91,5.91,0,0,1,2.43.62A5.86,5.86,0,0,1,50,4.53a5.87,5.87,0,0,0,.89,1.07,5.59,5.59,0,0,0,1.22.7,6.13,6.13,0,0,1,2.08,1.42,5.93,5.93,0,0,1,1,2.3,6.1,6.1,0,0,0,.48,1.32,5.94,5.94,0,0,0,.9,1.07,5.91,5.91,0,0,1,1.48,2.05,6,6,0,0,1,.19,2.5,5.68,5.68,0,0,0,0,1.43,5.53,5.53,0,0,0,.47,1.29,6,6,0,0,1,.69,2.45,6,6,0,0,1-.69,2.46,5.53,5.53,0,0,0-.47,1.29,5.69,5.69,0,0,0,0,1.43,6,6,0,0,1-.19,2.5,5.91,5.91,0,0,1-1.48,2.05,5.94,5.94,0,0,0-.9,1.07,6.1,6.1,0,0,0-.48,1.32,5.93,5.93,0,0,1-1,2.3A6.13,6.13,0,0,1,52.09,38a5.37,5.37,0,0,0-1.22.7,6.32,6.32,0,0,0-.9,1.07,5.71,5.71,0,0,1-1.76,1.81,5.91,5.91,0,0,1-2.43.62,6.63,6.63,0,0,0-1.4.25A1,1,0,0,1,44,42.48Z"/><path d="M37,13.13a1,1,0,0,1-1-1v-4a1,1,0,0,1,2,0v4A1,1,0,0,1,37,13.13Z"/><path d="M30.5,14.88a1,1,0,0,1-.87-.5l-2-3.47a1,1,0,0,1,1.74-1l2,3.47A1,1,0,0,1,31,14.74,1,1,0,0,1,30.5,14.88Z"/><path d="M25.74,19.63a1,1,0,0,1-.5-.13l-3.46-2a1,1,0,1,1,1-1.73l3.46,2a1,1,0,0,1,.37,1.36A1,1,0,0,1,25.74,19.63Z"/><path d="M48.26,19.63a1,1,0,0,1-.87-.5,1,1,0,0,1,.37-1.36l3.46-2a1,1,0,1,1,1,1.73l-3.46,2A1,1,0,0,1,48.26,19.63Z"/><path d="M43.5,14.88a1,1,0,0,1-.5-.14,1,1,0,0,1-.37-1.36l2-3.47a1,1,0,0,1,1.74,1l-2,3.47A1,1,0,0,1,43.5,14.88Z"/><path d="M14,62.13A14,14,0,0,1,5.77,36.81,1,1,0,1,1,7,38.42a12,12,0,1,0,18.13,5.09,1,1,0,1,1,1.84-.77A13.83,13.83,0,0,1,28,48.13,14,14,0,0,1,14,62.13Z"/><path d="M17.39,59.13a2.62,2.62,0,0,1-2.58-2.23l-.66-4.63a.15.15,0,0,0-.3,0l-.66,4.63A2.61,2.61,0,0,1,8,56.53v-.48a9.5,9.5,0,0,0-1.36-4.9A11.56,11.56,0,0,1,5,45.22v-.76a5.33,5.33,0,0,1,5.33-5.33h.26a5.65,5.65,0,0,1,2.77.78,1.05,1.05,0,0,0,1.28,0,5.65,5.65,0,0,1,2.77-.78h.26A5.33,5.33,0,0,1,23,44.46v.76a11.56,11.56,0,0,1-1.64,5.93A9.5,9.5,0,0,0,20,56.05v.48A2.6,2.6,0,0,1,17.39,59.13Zm-3.39-9A2.17,2.17,0,0,1,16.13,52l.66,4.63a.61.61,0,0,0,.6.52.6.6,0,0,0,.61-.6v-.48a11.56,11.56,0,0,1,1.64-5.93A9.5,9.5,0,0,0,21,45.22v-.76a3.34,3.34,0,0,0-3.33-3.33h-.26a3.63,3.63,0,0,0-1.78.52,3,3,0,0,1-3.26,0,3.63,3.63,0,0,0-1.78-.52h-.26A3.34,3.34,0,0,0,7,44.46v.76a9.5,9.5,0,0,0,1.36,4.9A11.56,11.56,0,0,1,10,56.05v.48a.6.6,0,0,0,.61.6.61.61,0,0,0,.6-.52L11.87,52A2.17,2.17,0,0,1,14,50.13Z"/><path d="M14,46.13a7.32,7.32,0,0,1-3.61-1A1,1,0,0,1,10,43.76a1,1,0,0,1,1.36-.37,5,5,0,0,0,5.25,0,1,1,0,1,1,1,1.74A7.22,7.22,0,0,1,14,46.13Z"/><circle cx="14" cy="35.13" r="1"/><circle cx="9.88" cy="35.77" r="1"/></g></g></svg>