<svg xmlns="http://www.w3.org/2000/svg" viewBox="0 0 62 62"><defs><style>.cls-1{fill:#1c71f4;}</style></defs><g id="Layer_2" data-name="Layer 2"><g id="Layer_1-2" data-name="Layer 1"><path class="cls-1" d="M61,62H1a1,1,0,0,1-.77-.36A1,1,0,0,1,0,60.82C2.56,46.67,15.88,36,31,36S59.44,46.67,62,60.82a1,1,0,0,1-.21.82A1,1,0,0,1,61,62Z"/><path d="M36.25,46A3.26,3.26,0,0,1,33,42.75V30a2,2,0,0,0-4,0V42.75a3.25,3.25,0,0,1-6.4.79l-1.06-4.28a32.94,32.94,0,0,0-4.89-10.79A31.6,31.6,0,0,1,11,10.39,10.4,10.4,0,0,1,21.39,0a10.72,10.72,0,0,1,6,1.9A6.35,6.35,0,0,0,31,3a6.35,6.35,0,0,0,3.62-1.1,10.72,10.72,0,0,1,6-1.9A10.4,10.4,0,0,1,51,10.39a31.6,31.6,0,0,1-5.65,18.08,32.94,32.94,0,0,0-4.89,10.79L39.4,43.54A3.25,3.25,0,0,1,36.25,46ZM31,26a4,4,0,0,1,4,4V42.75a1.25,1.25,0,0,0,2.46.31l1.07-4.28a34.78,34.78,0,0,1,5.18-11.45A29.64,29.64,0,0,0,49,10.39,8.39,8.39,0,0,0,40.61,2a8.77,8.77,0,0,0-4.87,1.55A8.31,8.31,0,0,1,31,5a8.31,8.31,0,0,1-4.74-1.45A8.77,8.77,0,0,0,21.39,2,8.39,8.39,0,0,0,13,10.39a29.64,29.64,0,0,0,5.29,16.94,34.78,34.78,0,0,1,5.18,11.45l1.07,4.28A1.25,1.25,0,0,0,27,42.75V30A4,4,0,0,1,31,26Z"/><path d="M38,32.29l-.22,0a1,1,0,0,1-.78-1V30a6,6,0,0,0-12,0v1.29a1,1,0,0,1-1.91.42,36.37,36.37,0,0,0-3.15-5.52A27.6,27.6,0,0,1,15,10.39,6.4,6.4,0,0,1,21.39,4a6.76,6.76,0,0,1,3.75,1.21A10.43,10.43,0,0,0,31,7a10.43,10.43,0,0,0,5.86-1.79A6.76,6.76,0,0,1,40.61,4,6.4,6.4,0,0,1,47,10.39a27.67,27.67,0,0,1-4.93,15.8,36.8,36.8,0,0,0-3.16,5.52A1,1,0,0,1,38,32.29ZM31,22a8,8,0,0,1,7.69,5.79c.54-.94,1.12-1.85,1.73-2.74A25.58,25.58,0,0,0,45,10.39,4.4,4.4,0,0,0,40.61,6,4.72,4.72,0,0,0,38,6.87,12.45,12.45,0,0,1,31,9a12.47,12.47,0,0,1-7-2.13A4.72,4.72,0,0,0,21.39,6,4.4,4.4,0,0,0,17,10.39a25.58,25.58,0,0,0,4.58,14.66c.61.89,1.19,1.8,1.73,2.74A8,8,0,0,1,31,22Z"/><path d="M36,62a1,1,0,0,1-1-1V59.14a201.14,201.14,0,0,1,2-28.28A1,1,0,0,1,38.14,30,1,1,0,0,1,39,31.14a198.66,198.66,0,0,0-2,28V61A1,1,0,0,1,36,62Z"/><path d="M26,62a1,1,0,0,1-1-1V59.14a198.66,198.66,0,0,0-2-28,1,1,0,0,1,2-.28,201.14,201.14,0,0,1,2,28.28V61A1,1,0,0,1,26,62Z"/><path d="M41,12a1,1,0,0,1-1-1V9a1,1,0,0,1,2,0v2A1,1,0,0,1,41,12Z"/><path d="M44,21a1,1,0,0,1-1-.86l-.93-6.53-4.59-2.75a1,1,0,1,1,1-1.72l5,3a1,1,0,0,1,.48.72l1,7A1,1,0,0,1,44.14,21Z"/><path d="M38,19a1,1,0,0,1-.71-.29,1,1,0,0,1,0-1.42l2-2A1,1,0,0,1,40,15h3a1,1,0,0,1,0,2H40.41l-1.7,1.71A1,1,0,0,1,38,19Z"/><path d="M40,17a1,1,0,0,1-.71-.29l-2-2a1,1,0,0,1,1.42-1.42l2,2a1,1,0,0,1,0,1.42A1,1,0,0,1,40,17Z"/><path d="M31,24a1,1,0,0,1-1-1V16.62l-3.45-1.73a1,1,0,1,1,.9-1.78l4,2A1,1,0,0,1,32,16v7A1,1,0,0,1,31,24Z"/><path d="M31,21a1,1,0,0,1-.71-.29,1,1,0,0,1,0-1.42l3-3a1,1,0,0,1,1.42,1.42l-3,3A1,1,0,0,1,31,21Z"/><path d="M31,17a1.25,1.25,0,0,1-.32-.05,1,1,0,0,1-.63-1.27l1-3a1,1,0,0,1,1.9.64l-1,3A1,1,0,0,1,31,17Z"/><path d="M25,27a1,1,0,0,1-1-.9l-1-9.72L20.2,12.6a1,1,0,0,1,0-1.15l2-3a1,1,0,1,1,1.66,1.1L22.22,12,24.8,15.4a1,1,0,0,1,.2.5l1,10a1,1,0,0,1-.9,1.1Z"/><path d="M21,18a1,1,0,0,1-.95-.68,1,1,0,0,1,.63-1.27l3-1a1,1,0,0,1,.64,1.9l-3,1A1.25,1.25,0,0,1,21,18Z"/><path d="M25,22a1,1,0,0,1-.71-.29,1,1,0,0,1,0-1.42l2-2a1,1,0,0,1,1.42,1.42l-2,2A1,1,0,0,1,25,22Z"/><path d="M21,13a.93.93,0,0,1-.45-.11l-2-1a1,1,0,1,1,.9-1.78l2,1a1,1,0,0,1,.44,1.34A1,1,0,0,1,21,13Z"/></g></g></svg>